<svg xmlns="http://www.w3.org/2000/svg" width="2560" height="2560" viewBox="0 0 2560 2560"><rect width="2560" height="2560" fill="#EDE6D6"/><linearGradient id="gutter" x1="0" y1="0" x2="430" y2="0" gradientUnits="userSpaceOnUse"><stop offset="0%" stop-color="#14110E" stop-opacity="0.22"/><stop offset="100%" stop-color="#14110E" stop-opacity="0"/></linearGradient><rect width="430" height="2560" fill="url(#gutter)"/><g transform="rotate(-0.7 1280.0 1280.0)"><rect x="600" y="222" width="1360" height="6" fill="#6E7B84" opacity="0.6"/><rect x="600" y="168" width="188" height="20" fill="#6E7B84" opacity="0.55"/><rect x="600" y="300" width="370.946" height="30" fill="#14110E" opacity="0.98"/><rect x="1023.04" y="300" width="422.712" height="30" fill="#14110E" opacity="0.91"/><rect x="1491.32" y="300" width="200.42" height="30" fill="#14110E" opacity="0.92"/><rect x="1733.1" y="300" width="150.568" height="30" fill="#14110E" opacity="0.93"/><rect x="600" y="357.305" width="388.601" height="30" fill="#14110E" opacity="0.90"/><rect x="1022.92" y="357.305" width="276.566" height="30" fill="#14110E" opacity="0.90"/><rect x="1350.86" y="357.305" width="406.844" height="30" fill="#14110E" opacity="0.91"/><rect x="600" y="413.083" width="433.084" height="30" fill="#14110E" opacity="0.94"/><rect x="1067.94" y="413.083" width="365.381" height="30" fill="#14110E" opacity="0.95"/><rect x="1477.43" y="413.083" width="162.341" height="30" fill="#14110E" opacity="0.95"/><rect x="600" y="467.708" width="452.492" height="30" fill="#14110E" opacity="0.92"/><rect x="1093.24" y="467.708" width="283.244" height="30" fill="#14110E" opacity="0.98"/><rect x="1420.45" y="467.708" width="137.205" height="30" fill="#14110E" opacity="0.97"/><rect x="600" y="521.295" width="215.714" height="30" fill="#14110E" opacity="0.98"/><rect x="850.381" y="521.295" width="213.743" height="30" fill="#14110E" opacity="0.91"/><rect x="1100.92" y="521.295" width="348.614" height="30" fill="#14110E" opacity="0.96"/><rect x="1498.04" y="521.295" width="257.009" height="30" fill="#14110E" opacity="0.97"/><rect x="600" y="577.208" width="267.047" height="30" fill="#14110E" opacity="0.98"/><rect x="902.99" y="577.208" width="155.178" height="30" fill="#14110E" opacity="0.93"/><rect x="1107.92" y="577.208" width="308.245" height="30" fill="#14110E" opacity="0.97"/><rect x="1467.08" y="577.208" width="165.303" height="30" fill="#14110E" opacity="0.92"/><rect x="600" y="620.523" width="1317.84" height="42" fill="#C8382B"/><rect x="600" y="706.523" width="338.831" height="30" fill="#14110E" opacity="0.92"/><rect x="974.345" y="706.523" width="175.491" height="30" fill="#14110E" opacity="0.97"/><rect x="1188.44" y="706.523" width="255.261" height="30" fill="#14110E" opacity="0.94"/><rect x="1487.31" y="706.523" width="83.9017" height="30" fill="#14110E" opacity="0.94"/><rect x="600" y="762.557" width="342.36" height="30" fill="#14110E" opacity="0.94"/><rect x="988.534" y="762.557" width="352.036" height="30" fill="#14110E" opacity="0.95"/><rect x="1376.75" y="762.557" width="268.668" height="30" fill="#14110E" opacity="0.97"/><rect x="600" y="817.869" width="450.62" height="30" fill="#14110E" opacity="0.91"/><rect x="1096.5" y="817.869" width="318.004" height="30" fill="#14110E" opacity="0.96"/><rect x="1442.76" y="817.869" width="455.116" height="30" fill="#14110E" opacity="0.99"/><rect x="600" y="873.585" width="418.282" height="30" fill="#14110E" opacity="0.91"/><rect x="1062.23" y="873.585" width="174.692" height="30" fill="#14110E" opacity="0.92"/><rect x="1275.36" y="873.585" width="334.61" height="30" fill="#14110E" opacity="0.98"/><rect x="1655.92" y="873.585" width="95.5299" height="30" fill="#14110E" opacity="0.95"/><rect x="600" y="926.361" width="279.308" height="30" fill="#14110E" opacity="0.98"/><rect x="911.58" y="926.361" width="393.038" height="30" fill="#14110E" opacity="0.96"/><rect x="1355.48" y="926.361" width="155.442" height="30" fill="#14110E" opacity="0.95"/><rect x="600" y="1008.92" width="210.693" height="30" fill="#14110E" opacity="0.91"/><rect x="859.615" y="1008.92" width="249.739" height="30" fill="#14110E" opacity="0.97"/><rect x="1165.01" y="1008.92" width="265.676" height="30" fill="#14110E" opacity="0.94"/><rect x="600" y="1065.76" width="203.292" height="30" fill="#14110E" opacity="0.91"/><rect x="850.585" y="1065.76" width="290.694" height="30" fill="#14110E" opacity="0.97"/><rect x="1195.27" y="1065.76" width="320.393" height="30" fill="#14110E" opacity="0.93"/><rect x="1560.16" y="1065.76" width="134.52" height="30" fill="#14110E" opacity="0.94"/><rect x="600" y="1119.86" width="270.153" height="30" fill="#14110E" opacity="0.96"/><rect x="898.746" y="1119.86" width="263.859" height="30" fill="#14110E" opacity="0.92"/><rect x="1206.99" y="1119.86" width="169.561" height="30" fill="#14110E" opacity="0.96"/><rect x="1431.36" y="1119.86" width="421.051" height="30" fill="#14110E" opacity="0.99"/><rect x="600" y="1164.92" width="1007.76" height="42" fill="#C8382B"/><rect x="600" y="1250.92" width="390.418" height="30" fill="#14110E" opacity="0.92"/><rect x="1030.63" y="1250.92" width="203.513" height="30" fill="#14110E" opacity="0.99"/><rect x="1272.63" y="1250.92" width="210.41" height="30" fill="#14110E" opacity="0.91"/><rect x="1537.43" y="1250.92" width="135.817" height="30" fill="#14110E" opacity="0.94"/><rect x="600" y="1307.45" width="291.891" height="30" fill="#14110E" opacity="0.94"/><rect x="923.621" y="1307.45" width="198.188" height="30" fill="#14110E" opacity="0.97"/><rect x="1169.62" y="1307.45" width="391.327" height="30" fill="#14110E" opacity="0.91"/><rect x="600" y="1363.71" width="362.638" height="30" fill="#14110E" opacity="1.00"/><rect x="1016.5" y="1363.71" width="153.872" height="30" fill="#14110E" opacity="0.97"/><rect x="1203.76" y="1363.71" width="185.248" height="30" fill="#14110E" opacity="0.98"/><rect x="1417.9" y="1363.71" width="178.301" height="30" fill="#14110E" opacity="0.97"/><rect x="1628.31" y="1363.71" width="304.404" height="30" fill="#14110E" opacity="0.91"/><rect x="600" y="1420.84" width="313.053" height="30" fill="#14110E" opacity="0.94"/><rect x="941.265" y="1420.84" width="212.882" height="30" fill="#14110E" opacity="0.98"/><rect x="1203.7" y="1420.84" width="249.911" height="30" fill="#14110E" opacity="0.91"/><rect x="1497.17" y="1420.84" width="208.842" height="30" fill="#14110E" opacity="0.93"/><rect x="600" y="1474.36" width="405.386" height="30" fill="#14110E" opacity="0.96"/><rect x="1052.13" y="1474.36" width="219.68" height="30" fill="#14110E" opacity="0.96"/><rect x="1318.37" y="1474.36" width="201.675" height="30" fill="#14110E" opacity="0.95"/><rect x="600" y="1530.33" width="368.617" height="30" fill="#14110E" opacity="0.98"/><rect x="1008.14" y="1530.33" width="254.686" height="30" fill="#14110E" opacity="0.99"/><rect x="1297.39" y="1530.33" width="161.256" height="30" fill="#14110E" opacity="0.97"/><rect x="1499.58" y="1530.33" width="162.349" height="30" fill="#14110E" opacity="1.00"/><rect x="600" y="1583.87" width="215.567" height="30" fill="#14110E" opacity="0.99"/><rect x="845.241" y="1583.87" width="202.421" height="30" fill="#14110E" opacity="0.94"/><rect x="1102.08" y="1583.87" width="245.811" height="30" fill="#14110E" opacity="0.97"/><rect x="1386.16" y="1583.87" width="180.149" height="30" fill="#14110E" opacity="0.96"/><rect x="1600.26" y="1583.87" width="183.4" height="30" fill="#14110E" opacity="0.91"/><rect x="1812.63" y="1583.87" width="125.075" height="30" fill="#14110E" opacity="0.99"/><rect x="600" y="1665.5" width="423.942" height="30" fill="#14110E" opacity="0.99"/><rect x="1066.96" y="1665.5" width="266.704" height="30" fill="#14110E" opacity="0.95"/><rect x="1379.75" y="1665.5" width="233.267" height="30" fill="#14110E" opacity="0.94"/><rect x="1655.86" y="1665.5" width="65.0432" height="30" fill="#14110E" opacity="0.92"/><rect x="600" y="1708.08" width="968.32" height="42" fill="#C8382B"/><rect x="600" y="1794.08" width="407.47" height="30" fill="#14110E" opacity="0.92"/><rect x="1035.67" y="1794.08" width="419.232" height="30" fill="#14110E" opacity="0.98"/><rect x="1492.6" y="1794.08" width="372.272" height="30" fill="#14110E" opacity="0.99"/><rect x="600" y="1849.55" width="288.629" height="30" fill="#14110E" opacity="0.96"/><rect x="923.821" y="1849.55" width="379.818" height="30" fill="#14110E" opacity="0.95"/><rect x="1351.73" y="1849.55" width="338.914" height="30" fill="#14110E" opacity="0.98"/><rect x="600" y="1907.03" width="427.471" height="30" fill="#14110E" opacity="0.91"/><rect x="1067.89" y="1907.03" width="180.614" height="30" fill="#14110E" opacity="0.98"/><rect x="1280.83" y="1907.03" width="207.527" height="30" fill="#14110E" opacity="0.94"/><rect x="1536.69" y="1907.03" width="76.3323" height="30" fill="#14110E" opacity="0.95"/><rect x="600" y="1964.8" width="448.236" height="30" fill="#14110E" opacity="0.99"/><rect x="1098" y="1964.8" width="209.9" height="30" fill="#14110E" opacity="0.96"/><rect x="1351.64" y="1964.8" width="160.03" height="30" fill="#14110E" opacity="0.97"/></g><filter id="paper" x="0" y="0" width="100%" height="100%"><feTurbulence type="fractalNoise" baseFrequency="0.7" numOctaves="5" seed="7" result="n"/><feColorMatrix in="n" type="saturate" values="0"/></filter><rect width="2560" height="2560" filter="url(#paper)" opacity="0.30" style="mix-blend-mode:multiply"/></svg>